<svg xmlns="http://www.w3.org/2000/svg" width="31" height="21" fill="none" viewBox="0 0 31 21"><path fill="#A8B6F0" fill-opacity=".6" stroke="#4360DF" stroke-width="2.5" d="M2.75 5.32895C2.75 3.07621 4.57621 1.25 6.82895 1.25H24.1711C26.4238 1.25 28.25 3.07621 28.25 5.32895V15.6711C28.25 17.9238 26.4238 19.75 24.1711 19.75H6.82895C4.57621 19.75 2.75 17.9238 2.75 15.6711V5.32895Z"/><path stroke="#4360DF" stroke-linecap="round" stroke-linejoin="round" stroke-width="2.2" d="M4.5 18L11.5 10"/><path stroke="#4360DF" stroke-linecap="round" stroke-linejoin="round" stroke-width="2.2" d="M19.5 10L26.5 19"/><path fill="#ECEFFC" fill-opacity=".8" stroke="#4360DF" stroke-linejoin="round" stroke-width="2.5" d="M16.1172 11.3509C15.7602 11.6503 15.2398 11.6503 14.8828 11.3509L5.45829 3.44647C4.77111 2.87014 5.17867 1.75 6.07553 1.75L24.9245 1.75C25.8213 1.75 26.2289 2.87014 25.5417 3.44647L16.1172 11.3509Z"/></svg>